<svg xmlns="http://www.w3.org/2000/svg" width="49" height="42" viewBox="0 0 49 42"><g><g><path fill="#1f2c33" d="M23.674 41.533L4.254 22.57c-.827-.756-1.476-1.629-2.067-2.56C-1 14.832-.173 8.201 4.253 3.896a13.588 13.588 0 0 1 9.563-3.898c5.667 0 9.208 3.258 10.684 5.12 1.476-1.862 5.017-5.12 10.684-5.12 3.6 0 7.024 1.396 9.562 3.898C49.114 8.201 50 14.832 46.812 20.01c-.59.931-1.24 1.804-2.066 2.56l-19.42 18.964a1.153 1.153 0 0 1-1.652 0zM13.816 2.325c-3.01 0-5.785 1.163-7.91 3.2-3.6 3.548-4.309 9.016-1.712 13.263a11.974 11.974 0 0 0 1.712 2.152L24.5 39.09l18.594-18.15c.649-.64 1.24-1.338 1.711-2.152 2.598-4.305 1.948-9.773-1.711-13.264a11.456 11.456 0 0 0-7.91-3.199c-4.25 0-7.792 2.27-9.68 5.41-.473.756-1.594.756-2.067 0-1.83-3.14-5.371-5.41-9.621-5.41z"/></g></g></svg>