<svg xmlns="http://www.w3.org/2000/svg" width="54" height="49" viewBox="0 0 54 49"><g><g><path fill="#1f2c33" d="M26.579 8.112c-4.434 0-8.041 3.595-8.041 8.014a.947.947 0 0 1-.95.946.947.947 0 0 1-.95-.946c0-5.462 4.46-9.906 9.941-9.906a.947.947 0 0 1 0 1.892zm.622-6.486c8.023 0 14.55 6.504 14.55 14.5 0 3.227-1.04 6.28-3.008 8.83-4.193 5.77-3.104 8.56-3.093 8.587a.954.954 0 0 1-.483 1.238.941.941 0 0 1-1.24-.443c-.177-.369-1.589-3.793 3.295-10.515a12.473 12.473 0 0 0 2.63-7.698c0-6.952-5.676-12.608-12.651-12.608-6.976 0-12.652 5.656-12.652 12.608a12.457 12.457 0 0 0 2.667 7.742c4.88 6.715 3.523 10.1 3.352 10.465a.95.95 0 0 1-1.72-.802c0-.006 1.033-2.74-3.123-8.489l-.03-.037a14.33 14.33 0 0 1-3.046-8.878c0-7.995 6.528-14.5 14.552-14.5zm6.141 39.217H20.548a2.332 2.332 0 0 1-2.333-2.325v-.804a2.33 2.33 0 0 1 2.333-2.324h12.794a2.331 2.331 0 0 1 2.332 2.324v.804a2.33 2.33 0 0 1-2.332 2.325zm-12.794-1.892h12.794c.24 0 .433-.195.433-.433v-.804a.433.433 0 0 0-.433-.432H20.548a.434.434 0 0 0-.434.432v.804c0 .238.194.433.434.433zm2.486 4.277v1.891l4.16 1.892 4.188-1.97v-1.813c0-.523.424-.945.949-.945.525 0 .95.422.95.945v2.412a.946.946 0 0 1-.544.855l-5.13 2.412a.94.94 0 0 1-.8.007l-5.117-2.328a.945.945 0 0 1-.555-.86v-2.5c0-.521.424-.945.95-.945.524 0 .949.423.949.947zm25.52-9.621a.948.948 0 0 1-.563-.185l-6.44-4.732a.945.945 0 0 1-.2-1.324.95.95 0 0 1 1.327-.2l6.44 4.734c.421.31.511.902.2 1.322a.948.948 0 0 1-.764.385zM4.996 1.833a.945.945 0 0 1-.2-1.324A.95.95 0 0 1 6.123.31l6.586 4.838c.422.31.512.903.2 1.323a.95.95 0 0 1-1.328.2zm8.213 25.21a.943.943 0 0 1-.2 1.322l-6.884 5.058a.951.951 0 0 1-1.328-.2.944.944 0 0 1 .2-1.323l6.883-5.058a.953.953 0 0 1 1.329.2zM47.993.31a.95.95 0 0 1 1.327.2.943.943 0 0 1-.2 1.322L42.96 6.36a.947.947 0 0 1-1.127-1.524zM54 16.867a.948.948 0 0 1-.95.946h-7.26a.947.947 0 1 1 0-1.893h7.26c.525 0 .95.424.95.947zm-45.557.946H.949a.947.947 0 1 1 0-1.893h7.494c.525 0 .95.424.95.947a.948.948 0 0 1-.95.946z"/></g></g></svg>