<svg xmlns="http://www.w3.org/2000/svg" width="54" height="45" viewBox="0 0 54 45"><g><g><path fill="#ed4f2e" d="M54 4.09v28.636c0 2.25-1.823 4.09-4.05 4.09H35.1v2.796c.135.272.607.75.877 1.09.81.887 1.755 1.842 1.215 3.069-.54 1.228-2.092 1.228-2.767 1.228H18.9c-1.08 0-1.62-.478-1.823-.955-.54-1.09.203-2.045.945-3 .27-.341.81-1.09.878-1.363v-2.865H4.05c-2.228 0-4.05-1.84-4.05-4.09V4.089C0 1.84 1.822 0 4.05 0h45.9c2.227 0 4.05 1.84 4.05 4.09zM33.75 42.27c-.675-.749-1.35-1.635-1.35-2.59v-2.864H21.6v2.865c0 .954-.54 1.84-1.148 2.59zM51.3 28.636H2.7v4.09c0 .75.607 1.364 1.35 1.364h45.9a1.36 1.36 0 0 0 1.35-1.363zm0-24.546a1.36 1.36 0 0 0-1.35-1.363H4.05A1.36 1.36 0 0 0 2.7 4.089v21.819h48.6z"/></g></g></svg>