<svg xmlns="http://www.w3.org/2000/svg" width="52" height="43" viewBox="0 0 52 43"><g><g><path fill="#1f2c33" d="M51.44 7.082l-6.588 6.725v27.76c0 .787-.631 1.431-1.402 1.431H1.402C.63 42.998 0 42.355 0 41.569v-30.05c0-.788.63-1.431 1.402-1.431H35.6l9.39-9.588c.491-.5 1.403-.5 1.963 0l4.485 4.507a1.49 1.49 0 0 1 0 2.076zm-9.392 33.055V16.67L31.396 27.473c-.14.143-.35.286-.63.357 0 0-.701.215-1.682.43-1.893.5-4.556.43-4.626.43H11.143c-.771 0-1.402-.645-1.402-1.432 0-.787.63-1.431 1.402-1.431h12.264l1.261-4.293c.07-.214.14-.5.35-.643l7.78-7.942H2.803v27.188zM48.426 6.08l-2.453-2.504L27.261 22.68l-.84 3.362 3.293-.86z"/></g></g></svg>