<svg xmlns="http://www.w3.org/2000/svg" width="46" height="46" viewBox="0 0 46 46"><g><g><path fill="#1f2c33" d="M46 22.999c0 .632-.518 1.15-1.15 1.15h-3.508c-.575 9.2-7.992 16.617-17.192 17.192v3.508c0 .632-.518 1.15-1.15 1.15-.633 0-1.15-.518-1.15-1.15V41.34c-9.2-.575-16.618-7.993-17.193-17.192H1.15c-.633 0-1.15-.518-1.15-1.15 0-.633.517-1.15 1.15-1.15h3.507c.575-9.2 7.993-16.618 17.193-17.193V1.15c0-.633.517-1.15 1.15-1.15.632 0 1.15.517 1.15 1.15v3.507c9.2.575 16.617 7.993 17.192 17.193h3.508c.632 0 1.15.517 1.15 1.15zm-11.5 0c0-.633.517-1.15 1.15-1.15h3.392C38.467 13.914 32.085 7.53 24.15 6.956v3.393c0 .632-.518 1.15-1.15 1.15-.633 0-1.15-.518-1.15-1.15V6.956c-7.935.575-14.318 6.958-14.893 14.893h3.393c.632 0 1.15.517 1.15 1.15 0 .632-.518 1.15-1.15 1.15H6.957c.575 7.935 6.958 14.317 14.893 14.892v-3.392c0-.633.517-1.15 1.15-1.15.632 0 1.15.517 1.15 1.15v3.392c7.935-.575 14.317-6.9 14.892-14.892H35.65c-.633 0-1.15-.518-1.15-1.15z"/></g></g></svg>